<svg width="60" height="60" viewBox="0 0 60 60" fill="none" xmlns="http://www.w3.org/2000/svg">
<circle cx="30" cy="30" r="29" stroke="#343434" stroke-width="2"/>
<path d="M30.7071 19.9589C30.3166 19.5684 29.6834 19.5684 29.2929 19.9589C28.9024 20.3494 28.9024 20.9826 29.2929 21.3731L36.9198 29H20.666C20.1137 29 19.666 29.4477 19.666 30C19.666 30.5523 20.1137 31 20.666 31H36.9185L29.2929 38.6256C28.9024 39.0161 28.9024 39.6493 29.2929 40.0398C29.6834 40.4303 30.3166 40.4303 30.7071 40.0398L40.0404 30.7065" fill="#343434"/>
<path d="M40.0422 30.7047C40.431 30.314 40.4304 29.6822 40.0404 29.2922L30.7071 19.9589" fill="#343434"/>
</svg>
