<svg width="40" height="41" viewBox="0 0 40 41" fill="none" xmlns="http://www.w3.org/2000/svg">
<path fill-rule="evenodd" clip-rule="evenodd" d="M14.7616 10.9076C12.3273 10.9076 10.3516 12.8807 10.3516 15.3176C10.3516 17.7544 12.3273 19.7276 14.7616 19.7276C17.1979 19.7276 19.1716 17.7539 19.1716 15.3176L19.1716 15.3162C19.1692 12.8826 17.1966 10.9099 14.7629 10.9076H14.7616ZM13.0182 15.3176C13.0182 14.3546 13.7988 13.5746 14.7609 13.5742C15.7234 13.5755 16.5036 14.3558 16.5049 15.3182C16.5045 16.2815 15.725 17.0609 14.7616 17.0609C13.7991 17.0609 13.0182 16.2807 13.0182 15.3176Z" fill="white"/>
<path fill-rule="evenodd" clip-rule="evenodd" d="M5.80945 6.75773C7.50192 4.94113 9.91111 3.92579 12.7517 3.92579H27.1717C30.0201 3.92579 32.4315 4.94033 34.123 6.75837C35.8047 8.56574 36.6754 11.0585 36.6717 13.8509L35.3383 13.8491H36.6717V13.8509V27.4258C36.6717 30.2175 35.7997 32.7098 34.1173 34.5168C32.4249 36.3347 30.0133 37.3491 27.1633 37.3491H12.7517C9.90521 37.3491 7.49538 36.3343 5.80392 34.5166C4.1225 32.7097 3.25 30.2177 3.25 27.4258V13.8491C3.25 11.0557 4.12672 8.56388 5.80945 6.75773ZM7.76055 8.57551C6.61412 9.80602 5.91667 11.6092 5.91667 13.8491V27.4147C6.61042 26.9056 7.46936 26.4719 8.49234 26.1443C10.7667 25.4158 13.9283 25.1785 18.1882 25.787C19.5527 25.9819 20.2925 25.64 20.9103 25.1074C21.2618 24.8044 21.5956 24.4168 21.9772 23.9295C22.0874 23.7886 22.2062 23.6333 22.3313 23.4697C22.6081 23.1077 22.9155 22.7055 23.2287 22.3326C24.19 21.1882 25.4493 20.0059 27.4362 19.3686C29.1389 18.8224 31.2562 18.7144 34.005 19.208V13.8491L34.005 13.8474C34.008 11.6064 33.3145 9.80416 32.1707 8.57486C31.0369 7.35624 29.3615 6.59245 27.1717 6.59245H12.7517C10.5722 6.59245 8.89725 7.35544 7.76055 8.57551ZM7.75608 32.7C7.22093 32.1249 6.78406 31.4245 6.47056 30.6125L6.55141 30.6485C6.8001 30.0889 7.53585 29.2507 9.30574 28.6838C11.0754 28.117 13.8027 27.8543 17.8111 28.4269C19.9466 28.7319 21.4568 28.1571 22.6515 27.1272C23.2063 26.6489 23.6694 26.0938 24.0768 25.5734C24.227 25.3816 24.3657 25.2 24.5002 25.0238L24.5008 25.0231C24.7556 24.6895 24.9957 24.3751 25.2706 24.0478C26.0593 23.1089 26.925 22.333 28.2506 21.9078C29.4987 21.5075 31.2905 21.3756 34.005 21.9225V27.4258C34.005 29.6674 33.3103 31.4701 32.1656 32.6998C31.0309 33.9186 29.355 34.6825 27.1633 34.6825H12.7517C10.5648 34.6825 8.89045 33.919 7.75608 32.7Z" fill="white"/>
</svg>
