<svg width="24" height="24" viewBox="0 0 24 24" fill="none" xmlns="http://www.w3.org/2000/svg">
<path d="M12.483 8.98948C11.8588 8.89693 11.2214 9.00354 10.6613 9.29417C10.1012 9.58479 9.64696 10.0446 9.36327 10.6083C9.07957 11.1719 8.98083 11.8106 9.08107 12.4336C9.18132 13.0566 9.47546 13.6322 9.92165 14.0784C10.3678 14.5245 10.9434 14.8187 11.5664 14.9189C12.1894 15.0192 12.8281 14.9204 13.3917 14.6367C13.9554 14.353 14.4152 13.8988 14.7058 13.3387C14.9965 12.7786 15.1031 12.1412 15.0105 11.517C14.9161 10.8803 14.6194 10.2908 14.1643 9.83571C13.7092 9.38058 13.1197 9.0839 12.483 8.98948Z" fill="#959595"/>
<path fill-rule="evenodd" clip-rule="evenodd" d="M17 2H7C4.23858 2 2 4.23858 2 7V17C2 19.7614 4.23858 22 7 22H17C19.7614 22 22 19.7614 22 17V7C22 4.23858 19.7614 2 17 2ZM9.74012 7.51892C10.6736 7.03455 11.7361 6.85685 12.7764 7.01112C13.8375 7.16847 14.82 7.66295 15.5785 8.4215C16.3371 9.18006 16.8315 10.1625 16.9889 11.2236C17.1432 12.2639 16.9655 13.3264 16.4811 14.2599C15.9967 15.1934 15.2303 15.9504 14.2909 16.4232C13.3515 16.896 12.287 17.0606 11.2486 16.8935C10.2103 16.7265 9.25109 16.2362 8.50744 15.4926C7.76379 14.7489 7.27356 13.7897 7.10647 12.7514C6.93939 11.7131 7.10397 10.6485 7.5768 9.70909C8.04962 8.76969 8.80662 8.00329 9.74012 7.51892ZM17.5 5.5C16.9477 5.5 16.5 5.94772 16.5 6.5C16.5 7.05228 16.9477 7.5 17.5 7.5H17.51C18.0623 7.5 18.51 7.05228 18.51 6.5C18.51 5.94772 18.0623 5.5 17.51 5.5H17.5Z" fill="#959595"/>
</svg>
