<svg width="40" height="39" viewBox="0 0 40 39" fill="none" xmlns="http://www.w3.org/2000/svg">
<path fill-rule="evenodd" clip-rule="evenodd" d="M28.6117 20.2983C28.378 21.8487 27.73 23.3072 26.7362 24.5199C25.7423 25.7326 24.4395 26.6545 22.9653 27.1883C21.491 27.7221 19.9 27.848 18.3602 27.5526C16.8204 27.2573 15.3888 26.5517 14.2167 25.5104C13.0445 24.4691 12.1752 23.1306 11.7006 21.6362C11.226 20.1419 11.1636 18.5471 11.52 17.0203C11.8764 15.4934 12.6385 14.0911 13.7257 12.9614C14.8121 11.8324 16.1829 11.0175 17.6937 10.6025C17.6948 10.6022 17.6959 10.6019 17.697 10.6016L15.3513 2.05002C12.6638 2.78719 10.1954 4.15132 8.14582 6.02377C7.86812 6.27748 7.5981 6.54051 7.33628 6.81258C5.14203 9.09268 3.60406 11.9229 2.8847 15.0045C2.16534 18.086 2.29127 21.3047 3.24921 24.3206C4.20715 27.3365 5.96155 30.0379 8.32724 32.1396C10.6929 34.2413 13.5821 35.6653 16.6899 36.2614C19.7977 36.8574 23.0088 36.6034 25.9842 35.5261C28.9596 34.4488 31.5889 32.5882 33.5947 30.1406C33.834 29.8486 34.0634 29.5495 34.2827 29.2438C35.9007 26.988 36.9646 24.3761 37.3801 21.6204L28.6117 20.2983Z" fill="#2D200B"/>
<circle cx="28.7905" cy="8.01539" r="5.4925" fill="#F3D06B"/>
</svg>
