<svg width="80" height="80" viewBox="0 0 80 80" fill="none" xmlns="http://www.w3.org/2000/svg">
<rect width="80" height="80" rx="16" transform="matrix(-1 0 0 1 80 0)" fill="#F6BE2B"/>
<path d="M48.1709 24L40.2217 28.2969C43.1579 33.5964 44.6797 38.5557 44.7871 43.1748V52.6816H58V43.8193C57.9642 40.5609 56.9974 37.0697 55.0996 33.3457C53.2018 29.5859 50.8923 26.4707 48.1709 24ZM29.3184 24L21.3691 28.2969C24.3053 33.5964 25.8271 38.5557 25.9346 43.1748V52.6816H39.1475V43.8193C39.1117 40.5609 38.1449 37.0697 36.2471 33.3457C34.3493 29.5859 32.0397 26.4707 29.3184 24Z" fill="#2D200B"/>
</svg>
